<svg xmlns="http://www.w3.org/2000/svg" version="1.1" xmlns:xlink="http://www.w3.org/1999/xlink" xmlns:svgjs="http://svgjs.dev/svgjs" width="1000" height="184" viewBox="0 0 1000 184"><g transform="matrix(1,0,0,1,-0.6060469726940028,0.1666537908149479)"><svg viewBox="0 0 396 73" data-background-color="#dedede" preserveAspectRatio="xMidYMid meet" height="184" width="1000" xmlns="http://www.w3.org/2000/svg" xmlns:xlink="http://www.w3.org/1999/xlink"><defs></defs><g id="tight-bounds" transform="matrix(1,0,0,1,0.23999460118682236,-0.06611808005158082)"><svg viewBox="0 0 395.52 73.13223616010313" height="73.13223616010313" width="395.52"><g><svg viewBox="0 0 507.5692032229789 93.85030045939087" height="73.13223616010313" width="395.52"><g transform="matrix(1,0,0,1,112.0492032229789,27.65285787089145)"><svg viewBox="0 0 395.52 38.54458471760797" height="38.54458471760797" width="395.52"><g><svg viewBox="0 0 395.52 38.54458471760797" height="38.54458471760797" width="395.52"><g><svg viewBox="0 0 395.52 38.54458471760797" height="38.54458471760797" width="395.52"><g transform="matrix(1,0,0,1,0,0)"><svg width="395.52" viewBox="2.9100000858306885 -36.040000915527344 380.8299865722656 36.53000259399414" height="38.54458471760797" data-palette-color="#000000"><g class="undefined-text-0" data-fill-palette-color="primary" id="text-0"><path d="M25.56-11.28L30.27-11.28Q29.61-5.64 26.11-2.58 22.61 0.49 16.8 0.49L16.8 0.49Q10.5 0.49 6.7-4.03 2.91-8.54 2.91-16.11L2.91-16.11 2.91-19.53Q2.91-24.49 4.68-28.25 6.45-32.01 9.69-34.02 12.94-36.04 17.21-36.04L17.21-36.04Q22.88-36.04 26.29-32.87 29.71-29.71 30.27-24.12L30.27-24.12 25.56-24.12Q24.95-28.37 22.91-30.27 20.87-32.18 17.21-32.18L17.21-32.18Q12.72-32.18 10.17-28.86 7.62-25.54 7.62-19.41L7.62-19.41 7.62-15.97Q7.62-10.18 10.03-6.76 12.45-3.34 16.8-3.34L16.8-3.34Q20.7-3.34 22.79-5.11 24.88-6.88 25.56-11.28L25.56-11.28ZM63.99-35.55L63.99 0 59.27 0 59.27-16.43 41.35-16.43 41.35 0 36.67 0 36.67-35.55 41.35-35.55 41.35-20.26 59.27-20.26 59.27-35.55 63.99-35.55ZM92.4-20.26L92.4-16.43 77-16.43 77-3.83 94.89-3.83 94.89 0 72.31 0 72.31-35.55 94.65-35.55 94.65-31.69 77-31.69 77-20.26 92.4-20.26ZM123.75 0L120.35-9.28 105.46-9.28 102.12 0 97.28 0 110.86-35.55 114.96-35.55 128.56 0 123.75 0ZM112.91-29.76L106.88-13.13 118.96-13.13 112.91-29.76ZM146.4-13.92L138.03-13.92 138.03 0 133.34 0 133.34-35.55 146.45-35.55Q152.28-35.55 155.59-32.57 158.9-29.59 158.9-24.68L158.9-24.68Q158.9-19.51 155.67-16.71 152.43-13.92 146.4-13.92L146.4-13.92ZM138.03-31.69L138.03-17.75 146.45-17.75Q150.21-17.75 152.21-19.52 154.21-21.29 154.21-24.63L154.21-24.63Q154.21-27.81 152.21-29.71 150.21-31.62 146.72-31.69L146.72-31.69 138.03-31.69ZM169.59-35.55L169.59-3.83 186.44-3.83 186.44 0 164.88 0 164.88-35.55 169.59-35.55ZM193.39-35.55L202.62-17.7 211.9-35.55 217.22-35.55 204.97-13.26 204.97 0 200.28 0 200.28-13.26 188.02-35.55 193.39-35.55Z" fill="#000000" data-fill-palette-color="primary"></path><path d="M247.59-17.7L247.59-4.66Q245.78-2.08 242.55-0.79 239.31 0.49 235.02 0.49L235.02 0.49Q230.67 0.49 227.3-1.55 223.93-3.59 222.09-7.35 220.25-11.11 220.2-16.06L220.2-16.06 220.2-19.17Q220.2-27.2 223.95-31.62 227.69-36.04 234.48-36.04L234.48-36.04Q240.05-36.04 243.44-33.19 246.83-30.35 247.59-25.12L247.59-25.12 242.9-25.12Q241.59-32.18 234.51-32.18L234.51-32.18Q229.79-32.18 227.36-28.87 224.93-25.56 224.91-19.29L224.91-19.29 224.91-16.38Q224.91-10.4 227.64-6.87 230.38-3.34 235.04-3.34L235.04-3.34Q237.68-3.34 239.66-3.93 241.63-4.52 242.93-5.91L242.93-5.91 242.93-13.89 234.7-13.89 234.7-17.7 247.59-17.7ZM278.42 0L275.03-9.28 260.14-9.28 256.79 0 251.96 0 265.53-35.55 269.63-35.55 283.23 0 278.42 0ZM267.58-29.76L261.55-13.13 273.64-13.13 267.58-29.76ZM288.02-35.55L294.07-35.55 305.69-6.54 317.31-35.55 323.39-35.55 323.39 0 318.7 0 318.7-13.84 319.14-28.78 307.47 0 303.88 0 292.24-28.71 292.7-13.84 292.7 0 288.02 0 288.02-35.55ZM351.76-20.26L351.76-16.43 336.35-16.43 336.35-3.83 354.25-3.83 354.25 0 331.67 0 331.67-35.55 354-35.55 354-31.69 336.35-31.69 336.35-20.26 351.76-20.26ZM370.55-15.84L370.55-15.84Q364.52-17.58 361.78-20.1 359.03-22.63 359.03-26.34L359.03-26.34Q359.03-30.54 362.39-33.29 365.75-36.04 371.12-36.04L371.12-36.04Q374.78-36.04 377.65-34.62 380.52-33.2 382.09-30.71 383.67-28.22 383.67-25.27L383.67-25.27 378.95-25.27Q378.95-28.49 376.9-30.33 374.85-32.18 371.12-32.18L371.12-32.18Q367.65-32.18 365.71-30.65 363.77-29.13 363.77-26.42L363.77-26.42Q363.77-24.24 365.61-22.74 367.45-21.24 371.89-20 376.32-18.75 378.82-17.25 381.32-15.75 382.53-13.75 383.74-11.74 383.74-9.03L383.74-9.03Q383.74-4.71 380.37-2.11 377 0.49 371.36 0.49L371.36 0.49Q367.7 0.49 364.52-0.92 361.35-2.32 359.63-4.76 357.91-7.2 357.91-10.3L357.91-10.3 362.62-10.3Q362.62-7.08 365-5.21 367.38-3.34 371.36-3.34L371.36-3.34Q375.07-3.34 377.05-4.86 379.03-6.37 379.03-8.98 379.03-11.6 377.2-13.02 375.36-14.45 370.55-15.84Z" fill="#61777f" data-fill-palette-color="secondary"></path></g></svg></g></svg></g></svg></g></svg></g><g><svg viewBox="0 0 93.85030045939087 93.85030045939087" height="93.85030045939087" width="93.85030045939087"><g><svg></svg></g><g id="icon-0"><svg viewBox="0 0 93.85030045939087 93.85030045939087" height="93.85030045939087" width="93.85030045939087"><g><path d="M0 46.925c0-25.916 21.009-46.925 46.925-46.925 25.916 0 46.925 21.009 46.925 46.925 0 25.916-21.009 46.925-46.925 46.925-25.916 0-46.925-21.009-46.925-46.925zM46.925 90.374c23.996 0 43.449-19.453 43.449-43.449 0-23.996-19.453-43.449-43.449-43.449-23.996 0-43.449 19.453-43.449 43.449 0 23.996 19.453 43.449 43.449 43.449z" data-fill-palette-color="accent" fill="#61777f" stroke="transparent"></path></g><g transform="matrix(1,0,0,1,19.769652160597122,30.90340636892743)"><svg viewBox="0 0 54.31099613819662 32.043487721536" height="32.043487721536" width="54.31099613819662"><g><svg version="1.1" xmlns="http://www.w3.org/2000/svg" xmlns:xlink="http://www.w3.org/1999/xlink" x="0" y="0" viewBox="0 0 100 59" enable-background="new 0 0 100 59" xml:space="preserve" height="32.043487721536" width="54.31099613819662" class="icon-x-0" data-fill-palette-color="accent" id="x-0"><path d="M97.901 18l-0.003 0.001C96.896 7.895 88.372 0 78 0c-3.855 0-7.444 1.11-10.498 3H32.498C29.444 1.11 25.855 0 22 0 11.628 0 3.104 7.895 2.102 18.001L2.099 18C1.751 22.175 0 50.691 0 51c0 4.418 3.581 8 8 8 18.377 0 25.943-15.686 28.666-24h26.668C66.057 43.314 73.623 59 92 59c4.419 0 8-3.582 8-8C100 50.691 98.249 22.175 97.901 18zM22 32c-6.629 0-12-5.373-12-12S15.371 8 22 8s12 5.373 12 12S28.629 32 22 32zM78 32c-6.629 0-12-5.373-12-12S71.371 8 78 8s12 5.373 12 12S84.629 32 78 32z" fill="#61777f" data-fill-palette-color="accent"></path><polygon points="31,17 25,17 25,11 19,11 19,17 13,17 13,23 19,23 19,29 25,29 25,23 31,23 " fill="#61777f" data-fill-palette-color="accent"></polygon><path d="M78 16c0 2.21-1.79 4-4 4-2.205 0-4-1.79-4-4s1.795-4 4-4C76.21 12 78 13.79 78 16z" fill="#61777f" data-fill-palette-color="accent"></path><path d="M86 24c0 2.21-1.79 4-4 4-2.205 0-4-1.79-4-4s1.795-4 4-4C84.21 20 86 21.79 86 24z" fill="#61777f" data-fill-palette-color="accent"></path></svg></g></svg></g></svg></g></svg></g></svg></g></svg><rect width="395.52" height="73.13223616010313" fill="none" stroke="none" visibility="hidden"></rect></g></svg></g></svg>